<?xml version="1.0" encoding="utf-8"?>
<!-- Source: https://beastmode.co.nz/wp-content/uploads/2020/08/beastmode-logo_white.svg -->
<!-- Generator: Adobe Illustrator 24.3.0 -->
<svg version="1.1" id="Layer_1" xmlns="http://www.w3.org/2000/svg" xmlns:xlink="http://www.w3.org/1999/xlink" x="0px" y="0px"
	 viewBox="0 0 1066 333" style="enable-background:new 0 0 1066 333;" xml:space="preserve">
<style type="text/css">
	.st0{fill:#FFFFFF;}
	.st1{fill:none;stroke:#000000;stroke-width:2.126;stroke-miterlimit:10;}
	.st2{fill:#BF272D;}
</style>
<g>
	<g>
		<path class="st0" d="M1.5,199.98c0.91-9.34,1.45-16.73,1.72-22.04c0.48-7.36,0.97-17.37,1.34-30.09
			c0.32-12.78,0.59-21.77,0.59-26.98c0-1.88,0-4.56,0-7.95c5.53,0.16,10.14,0.16,13.26,0.16c4.83,0,10.26-0.06,16.27-0.27
			c6.28-0.16,11.54-0.27,15.94-0.27c5.31,0,9.18,0.14,11.38,0.38c2.9,0.46,5.53,1.1,7.79,2.04c2.25,0.99,4.13,2.25,5.58,3.68
			c1.62,1.75,2.96,3.78,3.87,6.2c1.13,2.71,1.61,5.56,1.61,8.67c0,2.39-0.27,4.8-0.91,7.03c-0.54,2.15-1.34,4.19-2.63,5.8
			c-1.02,1.77-2.25,3.22-3.81,4.4c-1.29,1.07-2.74,1.96-4.13,2.6c-1.34,0.65-3.11,1.37-5.37,1.91c2.26,0.4,4.03,0.88,5.48,1.29
			c1.39,0.59,2.84,1.29,4.29,2.44c1.61,1.02,2.95,2.41,4.24,4.16c1.23,1.72,2.14,3.54,2.74,5.72c0.64,2.01,0.96,4.3,0.96,6.66
			c0,3.22-0.54,6.28-1.61,9.16c-0.97,2.79-2.58,5.21-4.46,7.27c-1.5,1.75-3.76,3.25-6.33,4.51c-2.58,1.15-5.16,1.99-7.89,2.55
			c-2.31,0.37-6.34,0.62-12.08,0.67c-5.85,0.21-12.02,0.29-18.68,0.29H13.9H1.5z M28.45,182.58h12.29c3.11,0,5.64-0.32,7.14-0.64
			c1.88-0.43,3.33-1.08,4.3-1.88c0.97-0.67,1.72-1.77,2.31-3.11c0.59-1.37,0.91-2.74,0.91-4.35c0-1.45-0.27-2.74-0.7-3.73
			c-0.54-1.05-1.24-1.93-2.15-2.66c-0.96-0.78-2.09-1.29-3.43-1.58c-1.4-0.35-3.49-0.48-6.44-0.48H29.31L28.45,182.58z
			 M29.96,146.88h9.07c2.9,0,5.1-0.14,6.39-0.21c1.18-0.16,2.47-0.4,3.6-0.83c1.24-0.4,2.2-1.02,3.17-1.9
			c0.86-0.81,1.5-1.88,1.82-3.03c0.43-1.08,0.48-2.23,0.48-3.25c0-1.61-0.38-2.98-1.02-4.27c-0.81-1.29-1.93-2.12-3.65-2.68
			c-1.72-0.59-4.19-0.91-7.46-0.91h-11.6L29.96,146.88z"/>
		<path class="st0" d="M93.9,199.98c1.13-10.95,1.83-20.13,2.42-27.54c0.38-7.35,0.97-17.23,1.34-29.55
			c0.59-12.19,0.8-20.32,0.8-24.35l-0.16-5.61c10.09,0.11,22.17,0.16,36.4,0.16c13.31,0,24.75-0.06,34.9-0.16l-0.16,2.04
			c-0.11,0.54-0.11,2.44-0.32,5.64l-0.43,6.9c0,1.42-0.06,2.95-0.06,4.51c-8.16-0.27-15.14-0.48-20.62-0.48c-6.28,0-10.36,0-12.51,0
			c-2.09,0-5.53,0.16-9.99,0.3l-0.81,14.68c4.99,0.05,10.9,0.16,17.61,0.16c2.31,0,8.65-0.11,18.95-0.4
			c-0.48,5.45-0.8,11.87-1.18,19.41c-7.36-0.02-12.99-0.11-17.02-0.11c-5.85,0-12.46,0.11-19.7,0.43l-0.75,15.51h7.35
			c2.25,0,6.66-0.05,13.47-0.21l13.16-0.32c1.93-0.11,5.26-0.16,9.88-0.46c-0.59,6.22-0.91,12.83-1.29,19.46
			c-10.41-0.08-21.8-0.11-34.2-0.11l-28.03,0.11H93.9z"/>
		<path class="st0" d="M168.69,199.98l5.31-9.18l33.02-62.17l3.49-6.9c1.02-1.98,2.42-4.97,4.24-8.8
			c7.57,0.11,13.05,0.16,16.43,0.16c6.01,0,11.49-0.06,16.59-0.16l9.34,26.63l18.95,51.22l3.76,9.21
			c-7.41-0.08-11.92-0.11-13.47-0.11c-3.65,0-8.81,0.03-15.73,0.11c-1.88-6.93-4.62-15.25-8.16-24.75H210.3
			c-3.6,7.57-7.46,15.79-11.44,24.75c-7.89-0.08-12.67-0.11-14.6-0.11C181.09,199.87,175.88,199.9,168.69,199.98z M218.08,156.7
			h19.86c-4.99-15.03-7.62-23.33-8.16-24.72c-2.79,6.15-5.21,11.27-7.09,15.3L218.08,156.7z"/>
		<path class="st0" d="M285.68,198.69c-0.54-9.16-1.13-16.38-1.88-21.83c4.73,2.15,9.02,3.65,12.78,4.43
			c3.65,0.86,6.98,1.29,9.77,1.29c3.65,0,6.66-0.56,8.8-1.72c2.2-0.99,3.33-2.57,3.33-4.67c0-0.72-0.16-1.5-0.27-2.17
			c-0.27-0.61-0.59-1.37-1.18-2.23c-0.65-0.78-1.61-1.72-2.58-2.66l-12.08-10.49c-2.85-2.39-4.73-4.08-5.91-5.16
			c-2.31-2.14-3.92-4.21-5.21-6.01c-1.23-1.88-2.15-3.78-2.84-5.74c-0.54-1.96-0.81-4.03-0.81-6.12c0-2.63,0.49-5.21,1.4-7.65
			c0.91-2.52,2.25-4.83,4.19-6.98c1.71-2.15,4.13-4.08,7.19-5.64c2.95-1.56,6.17-2.63,9.61-3.25c3.49-0.56,7.03-0.83,10.79-0.83
			c7.09,0,14.92,0.83,23.46,2.42c0.05,3.06,0.21,5.69,0.43,8.11c0.11,2.5,0.54,6.77,1.24,12.89c-3.97-1.56-7.62-2.66-10.85-3.3
			c-3.11-0.62-5.96-0.91-8.27-0.91c-3.38,0-6.01,0.64-8.27,1.88c-2.15,1.29-3.33,2.74-3.33,4.56c0,0.81,0.21,1.72,0.54,2.5
			c0.32,0.83,0.97,1.8,1.88,2.82c1.02,1.13,2.26,2.26,3.76,3.54c1.5,1.37,3.87,3.3,7.19,5.8l4.56,3.65c1.29,1.13,2.9,2.47,4.46,4.08
			c1.61,1.56,2.85,3.06,4.08,4.59c1.07,1.53,1.93,2.93,2.63,4.21c0.59,1.29,1.02,2.58,1.4,3.87c0.22,1.34,0.43,2.63,0.43,4.24
			c0,3.81-0.91,7.36-2.74,10.82c-1.88,3.52-4.46,6.34-7.79,8.62c-3.38,2.18-7.09,3.76-11.06,4.7c-4.08,0.94-8.27,1.31-12.72,1.31
			C304.89,201.64,296.2,200.62,285.68,198.69z"/>
		<path class="st0" d="M378.08,199.98c2.15-20.59,3.38-43.44,3.76-68.24l-27.06,0.72l0.32-7.09c0.11-3.81,0.27-7.97,0.38-12.46
			c12.03,0.11,26.09,0.16,42.15,0.16l15.84-0.16h15.36h8.27l-0.38,6.23c-0.32,3.33-0.32,6.23-0.43,8.35
			c-0.11,2.17-0.11,3.87-0.11,4.97c-9.02-0.46-16.59-0.72-22.5-0.72h-4.46c-0.7,7.52-1.02,14.44-1.45,20.81
			c-0.54,9.1-0.91,17.96-1.13,26.55c-0.21,8.64-0.38,15.57-0.38,20.89c-7.09-0.08-11.44-0.11-13.53-0.11
			C390.96,199.87,386.02,199.9,378.08,199.98z"/>
	</g>
	<g>
		<path class="st0" d="M652.97,199.73l1.61-12.77l3.86-44.78l1.94-29.48c7.79,0.11,14.07,0.16,18.58,0.16
			c3.71,0,9.34-0.06,17.02-0.16c0.54,3.71,1.02,6.44,1.45,8.35c0.37,1.85,1.29,5.61,2.79,11.03c1.45,5.58,2.63,10.39,3.54,14.31
			c0.97,4.03,2.31,11.03,4.14,20.62c1.93-6.6,3.54-12.29,5.1-17.15c1.56-4.81,3.44-10.25,5.74-16.4c2.36-6.12,3.81-10.12,4.35-12.05
			c0.75-1.88,1.56-4.78,2.58-8.7c6.39,0.11,12.67,0.16,18.68,0.16c4.19,0,9.99-0.06,17.5-0.16c-0.91,14.34-1.39,26.68-1.61,36.99
			c-0.64,20.16-0.91,34.04-0.91,41.56c0,1.55,0,4.43,0.16,8.48c-5.58-0.05-9.56-0.05-11.81-0.05c-3.33,0-7.25,0-12.08,0.05
			c0.38-3.76,0.86-12.83,1.34-27.3c0.48-14.33,0.81-23.51,0.81-27.62c0-1.69,0-4.13-0.21-7.17l-8.37,25.93l-12.03,36.16
			c-5.42-0.05-9.23-0.05-11.38-0.05c-2.63,0-6.71,0-12.19,0.05l-7.84-34.98l-4.46-18.71c-0.27-0.67-0.43-1.58-0.64-2.71
			c-0.21-1.1-0.54-2.93-1.02-5.64l-1.61,17.72l-2.15,36.27l-0.27,8.05c-5.8-0.05-9.66-0.05-11.28-0.05
			C662.15,199.68,658.29,199.68,652.97,199.73z"/>
		<path class="st0" d="M827.46,111.04c6.76,0,13.37,0.97,19.59,2.79c6.28,1.77,11.81,4.72,16.59,8.8
			c4.67,3.92,8.22,8.56,10.63,13.77c2.26,5.26,3.44,11.28,3.44,18.15c0,7.09-1.29,13.69-3.87,19.65
			c-2.57,5.96-6.17,11.01-11.12,15.19c-4.89,4.21-10.68,7.2-17.39,9.16c-6.66,1.96-13.59,2.93-20.89,2.93
			c-7.3,0-14.17-0.94-20.67-2.87c-6.66-1.85-12.4-5-17.23-9.13c-4.94-4.32-8.43-8.96-10.36-14.18c-2.09-5.15-3.17-10.92-3.17-17.31
			c0-9.32,2.2-17.4,6.55-24.48c4.24-7.09,10.68-12.54,19.11-16.46C807.27,113.08,816.78,111.04,827.46,111.04z M826.28,130.23
			c-4.94,0-9.29,1.29-13.31,3.7c-3.87,2.31-6.98,5.66-9.08,9.88c-2.04,4.35-3.22,8.88-3.22,13.85c0,4.48,0.97,8.64,2.9,12.35
			c1.93,3.7,4.99,6.66,8.86,8.73c4.03,2.12,8.22,3.19,12.62,3.19c4.78,0,8.97-1.21,12.99-3.54c3.87-2.36,6.93-5.66,8.91-9.93
			c2.09-4.32,3.17-8.75,3.17-13.45c0-4.59-0.91-8.67-2.84-12.54c-1.93-3.86-4.72-6.87-8.54-9.02
			C835.14,131.36,830.95,130.23,826.28,130.23z"/>
		<path class="st0" d="M888.02,199.73c0.91-9.59,1.56-17.42,1.94-23.27c0.54-8.54,1.07-19.92,1.51-33.61
			c0.43-10.52,0.59-18.12,0.59-22.63v-7.52c5.05,0.16,9.29,0.22,12.99,0.22c3.44,0,8-0.11,13.69-0.27
			c5.63-0.21,10.9-0.32,15.94-0.32c5.64,0,10.63,0.35,14.87,1.05c4.4,0.64,8.37,2.07,12.02,4.16c3.81,2.2,6.92,4.94,9.45,8.43
			c2.47,3.44,4.4,7.41,5.8,12.05c1.29,4.62,1.93,9.37,1.93,14.31c0,4.8-0.59,9.37-1.61,13.83c-0.91,4.4-2.52,8.43-4.19,12
			c-1.82,3.6-4.02,6.66-6.44,9.23c-2.41,2.5-5.15,4.75-8.37,6.6c-2.36,1.34-4.83,2.47-7.09,3.14c-2.41,0.8-5.64,1.42-9.83,1.93
			c-4.56,0.48-9.77,0.67-15.57,0.67l-25.77-0.08C897.47,199.65,893.5,199.68,888.02,199.73z M915.56,180.67
			c2.41,0.13,4.78,0.19,7.36,0.19c4.35,0,8.22-0.32,11.76-1.13c3.27-0.72,6.33-2.39,8.8-4.86c2.52-2.52,4.51-5.74,5.69-9.69
			c1.34-3.89,1.99-8,1.99-12.08c0-5.1-1.02-9.29-2.9-12.81c-1.82-3.41-4.13-5.85-7.25-7.19c-2.95-1.37-7.14-2.07-12.45-2.07
			c-3.01,0-6.66,0.13-10.79,0.37L915.56,180.67z"/>
		<path class="st0" d="M988.9,199.73c1.13-10.87,1.88-20.08,2.31-27.46c0.59-7.41,1.02-17.26,1.5-29.48
			c0.54-12.35,0.64-20.46,0.64-24.46l-0.05-5.64c10.25,0.11,22.28,0.16,36.56,0.16c13.05,0,24.64-0.06,34.63-0.16l-0.06,2.12
			c0,0.46-0.16,2.39-0.27,5.56l-0.38,6.87c-0.21,1.56-0.21,3.03-0.21,4.56c-8.16-0.3-14.92-0.48-20.67-0.48
			c-6.07,0-10.26,0-12.46,0.03c-2.04,0-5.32,0.16-10.04,0.32l-0.64,14.66c4.94,0.05,10.85,0.16,17.45,0.16
			c2.47,0,8.86-0.16,19.01-0.46c-0.37,5.45-0.81,11.89-1.13,19.38c-7.36-0.03-13.1-0.03-16.97-0.03c-5.85,0-12.35,0.11-19.7,0.4
			l-0.7,15.49h7.25c2.2,0,6.66,0-13.42-0.16l13.26-0.32c1.93-0.08,5.16-0.24,9.88-0.51c-0.54,6.36-1.07,12.75-1.29,19.43
			c-10.31-0.05-21.85-0.05-34.15-0.05h-28.13L988.9,199.73z"/>
	</g>
	<path class="st0" d="M503.11,331.43c-0.81,0-1.61-0.34-2.04-1.07c-0.59-0.89-0.48-2.01,0.22-2.82l7.84-9.05
		c4.35-4.89,7.41-9.8,8.43-12.05c-0.16-0.16-0.37-0.33-0.48-0.41c-2.31-1.71-6.34-4.59-6.12-9.29c0.11-1.07-0.22-1.74-0.48-2.07
		c-9.56-1.24-15.9-9.93-18.95-25.88c-2.04,5.72-4.57,12.03-5.37,13.94c-0.32,0.99-1.13,1.53-2.14,1.53c-0.11,0-0.27-0.03-0.43-0.03
		c-1.13-0.21-1.93-1.24-1.88-2.39c0-0.54,0.11-14.98,0.48-20.03c0.32-3.01,0.7-9.69-0.11-14.6l-5.1,1.77
		c-0.32,0.11-0.54,0.16-0.81,0.16c-0.64,0-1.34-0.32-1.82-0.86c-0.64-0.75-0.75-1.77-0.22-2.68c0.11-0.16,9.45-17.15,11.22-21.96
		c0.59-1.88,1.02-3.81,1.18-5.58l-9.45,8.45c-0.43,0.35-1.02,0.57-1.56,0.57c-0.37,0-0.7-0.06-0.96-0.22
		c-0.86-0.32-1.35-1.12-1.45-2.04v-0.62c-0.54-10.95-1.82-37.12-1.24-45.01c0-0.67,0.11-1.4,0.32-2.04c-0.21,0-0.32,0-0.54,0
		c-0.16,0-0.37,0-0.48,0c-0.54,6.15-1.34,15.41-1.34,15.41c-0.11,1.18-1.08,2.07-2.2,2.12c0,0-0.11,0-0.21,0
		c-1.02,0-1.93-0.67-2.25-1.74l-4.56-18.04c-1.51-4.83-4.4-16.75-1.02-26.44c2.63-7.22,6.12-12.05,9.77-17.21
		c0,0,2.31-3.11,2.74-3.84c-1.45,1.18-2.84,2.2-3.65,2.87l-13.04,10.63c-0.49,0.4-0.97,0.59-1.51,0.59c-0.54,0-1.02-0.19-1.45-0.56
		c-0.91-0.67-1.13-1.93-0.7-2.85l1.39-2.82c-2.9,4.99-8.43,13.34-8.7,13.8c-0.43,0.64-1.23,1.05-1.99,1.05
		c-0.27,0-0.59-0.08-0.8-0.19c-1.08-0.37-1.72-1.48-1.51-2.55c0,0,2.04-13.23,2.85-17.66c2.04-11.6,3.17-22.55,2.95-28.29
		c-0.81,0.48-1.56,1.02-2.36,1.58l-16.48,12.4c-0.49,0.24-0.91,0.45-1.4,0.45c-0.65,0-1.24-0.27-1.72-0.64
		c-0.75-0.75-0.91-2.04-0.32-3.01l11.38-17.23c5.1-7.52,12.03-16.97,16.7-19.65c4.56-2.58,15.78-4.83,24.42-6.28l13.21-1.94
		c0.11,0,0.22,0,0.32,0c1.02,0,1.83,0.49,2.15,1.34c0.27,0.48,0.38,1.07,0.16,1.58c7.57-1.15,13.74-1.29,13.74-1.29l5.21-0.05
		c0.7,0,1.45,0.29,1.93,0.94c0.43,0.65,0.59,1.4,0.32,2.15c0,0-1.82,4.99-1.82,5.13c1.82-0.24,3.43-0.59,3.54-0.59l6.71-1.48
		c0.21-0.11,0.32-0.11,0.59-0.11c0.64,0,1.35,0.29,1.72,0.86c0.54,0.67,0.75,1.56,0.38,2.41l-1.13,2.77
		c2.74-1.48,6.12-3.62,9.66-6.15c0-4.56,0.11-9.34,0.81-12.02c0.43-1.59,1.13-3.17,1.99-4.83c-0.43,0.32-0.86,0.67-1.18,0.97
		c-1.34,1.18-2.74,2.31-3.54,2.87c-3.49,2.23-14.18,6.63-14.66,6.79c-0.22,0.13-0.54,0.16-0.81,0.16c-0.81,0-1.45-0.32-1.93-0.97
		c-0.64-0.86-0.54-2.09,0.16-2.93c0,0,6.93-7.97,9.39-10.76c0.91-1.02,2.2-2.79,3.01-3.92l0,0c-3.01-1.24-5.26-2.04-6.23-2.31
		c-1.67-0.32-10.04-1.02-16.8-1.34c-4.57-0.22-17.45-1.51-18.04-1.61c-1.13-0.11-2.04-0.99-2.15-2.09c-0.11-1.13,0.7-2.2,1.72-2.52
		c0.43-0.16,9.29-2.74,14.77-4.11l-5.69-0.64c-1.13-0.08-2.04-1.05-2.15-2.12c0-1.13,0.7-2.2,1.82-2.52l18.63-4.83
		c3.49-0.91,12.03-3.33,14.87-4.54c0.49-0.16,1.24-0.61,2.69-1.48l-0.27-0.16c-0.81-0.43-1.29-1.18-1.29-2.09
		c0-0.81,0.48-1.61,1.29-2.04l5.53-3.19c0.37-0.19,3.65-2.12,10.2-2.12c2.53,0,5.16,0.3,7.95,0.81c8.43,1.61,24,10.92,32.87,16.54
		c0.21-2.1,0.54-3.87,0.7-4.11l3.49-19.97c0.22-1.13,1.18-1.96,2.31-1.96l0,0c1.18,0,2.14,0.83,2.36,1.96l3.44,20.27
		c0.22,1.4,0.54,3.19,0.97,4.67c0.97-2.58,2.09-7.36,2.74-9.77l3.06-13.04c0.27-0.97,1.13-1.72,2.2-1.77h0.06
		c1.07,0,1.93,0.64,2.31,1.56l4.08,11.49c0.97,2.74,2.26,7.25,2.74,11.38l2.74-5.96c0.48-0.86,1.29-1.4,2.15-1.4
		c0.11,0,0.27,0,0.32,0c1.07,0.16,1.93,1.02,2.09,2.04l1.56,12.56c0.21,2.9,0.21,5.1,0.16,6.77c4.08-0.81,11.01-2.09,13.91-2.61
		c5.96-0.99,23.19-3.2,23.94-3.3c0.05,0,0.16,0,0.32,0c1.02,0,1.94,0.7,2.26,1.66c0.32,1.16-0.27,2.36-1.24,2.79
		c-0.7,0.35-16.75,7.52-22.28,9.66c-0.59,0.19-1.45,0.48-2.41,0.91c0.16,0.05,0.21,0.05,0.37,0.11c8.7,3.65,19.44,10.25,20.08,10.79
		l9.23,5.74c0.91,0.54,1.24,1.61,0.97,2.58c-0.16,0.97-1.13,1.72-2.09,1.75l-11.49,0.7l5.85,15.81c0.43,0.97,0.16,2.07-0.7,2.71
		c-0.43,0.3-0.97,0.46-1.4,0.46c-0.48,0-1.02-0.16-1.34-0.38l-8.32-5.8c0.11,0.38,0.11,0.72,0.22,1.13
		c1.02,4.89,2.63,12.48,1.51,17.93c-0.76,3.49-3.06,6.28-6.71,8.27c3.7,9.99,6.77,24.94,7.14,27.03l1.82,9.29
		c0.21,0.97-0.27,1.93-1.07,2.47c-0.32,0.24-0.75,0.4-1.18,0.4c-0.49,0-1.08-0.24-1.45-0.56l-3.22-2.41
		c-0.11,3.25-0.11,6.2-0.11,8.64l0.11,10.17c0,0.99-0.59,1.91-1.61,2.23c-0.27,0.08-0.43,0.16-0.8,0.16c-0.65,0-1.4-0.32-1.78-0.91
		l-3.65-4.48c-3.11,4.94-3.27,5.15-3.65,5.45l-0.05,0.27c-5.37,5.37-16.16,16.64-18.58,20.13c-6.12,9.56-16.05,28.72-17.82,38.39
		c-0.81,4.78,0.43,19.89,1.24,27.19l1.5,14.15c0.11,1.02-0.59,2.09-1.61,2.44c-0.22,0.05-0.49,0.14-0.81,0.14
		c-0.7,0-1.45-0.35-1.93-1l-6.28-9.02c-0.22,4.13,0,7.59,0.16,9.23c0.59,8.16-2.04,15.92-7.41,21.88
		c-4.56,5.16-10.64,8.38-16.33,8.54c-2.41,0-5.91,0.24-9.29,0.54c-1.77,0.11-3.44,0.27-4.94,0.32l-1.23,0.13
		c-2.2,0.19-4.3,0.43-6.39,0.67c0.49,1.13,0.7,2.55,0.27,4.14c-2.25,10.52-24.96,17.39-31.83,19.22l-11.44,3.3
		C503.55,331.43,503.33,331.43,503.11,331.43z M475.95,153.72c-0.43,0.4-0.8,0.89-1.02,1.21c-0.59,0.81-1.34,3.65-2.04,7.36
		C473.69,159.84,474.71,156.81,475.95,153.72z M463.65,113.08c-1.13,1.45-3.28,6.44-5.21,10.9c-0.54,1.56-1.29,3.01-1.93,4.4
		l2.52-5.05c1.45-2.92,3.6-7.52,4.99-10.65C463.92,112.81,463.76,112.92,463.65,113.08z"/>
	<g>
		<path d="M576.83,63.1c-2.58-1.4-9.82-1.9-12.72-1.07c-1.61,0.46-5.1,1.77-4.4,3.03c2.31,4.78,10.63,6.28,14.55,8.35
			c4.53,2.39,10.97,8.08,14.94,15.11c1.83,3.22,10.63,6.26,14.01,4.81c2.14-0.91,3.27-6.66,5.32-7.89c1.72-1.18,6.01-1.02,8.53-0.78
			c2.9,0.21,4.41,1.1,13.05,0.4c2.52-0.22-4.83-5.9-6.87-7.57c-1.77-1.51-5.85-4.19-8.38-3.78c-4.08,0.72-8.59,8.24-11.76,10.76
			c-2.42,1.96-6.92,0.97-8.86-0.49C588.87,79.85,583.07,66.42,576.83,63.1z"/>
		<path d="M532,116.89c0,0,4.35,0.16,3.43,1.58c-4.73,7.38-13.58,17.88-18.36,23.49c-4.94,5.5-14.98,16.62-18.42,22.79
			c-5.64,10.47-12.83,44.4-12.83,44.4s4.88-5.66,5.1-3.71c0.49,5.05,0.91,12.33-0.22,16.27c-1.56,5.29-10.47,19.22-10.47,19.22
			s2.85-2.31,3.49-1.58c5.05,6.6,2.9,23.19,2.9,23.19s1.45-9.07,2.84-14.28c0.91-3.81,5.1,10.5,6.12,14.28
			c2.63,9.9,9.07,15.11,25.02,17.66c11.43,1.8,34.79,4.21,46.39,5.31c5.42,0.51,18.91,1.48,17.79-12.43
			c-0.38-5.66-0.38-14.68,1.82-22.66c0.7-2.47,7.14,6.95,7.14,6.95s-2.36-21.8-1.13-28.91c1.94-10.98,12.72-31.22,18.74-40.54
			c3.27-5.15,12.29-14.01,14.23-19.86c0.43-1.72,0-7.43,0-7.43s3.76-2.34,4.08-3.79c0.32-1.34,3.87-6.5-10.36-25.82
			c-5.21-7.11-26.36-18.66-29.53-19.3c-10.9-2.2-32.33-1.5-42.96,0C533.77,113.67,532,116.89,532,116.89z"/>
		<path class="st2" d="M548.86,170.37c-4.78,1.51-9.56,10.31-9.61,15.35c-0.27,6.39,6.44,17.83,9.29,23.49
			c2.52,4.94,11.92,25.4,6.71,20.94c-6.93-5.99-15.3-25.1-23.95-27.94c-4.88-1.67-15.14,0.27-19.33,3.24
			c-2.74,1.91-5.1,10.79-6.49,13.69c-1.23,3.06-2.15,9.56-1.93,12.89c0.48,5.45,4.56,11.14,8.11,15.3
			c3.49,4.08,3.17-6.07,14.77-4.67c3.38,0.46,1.45,8.21,1.56,11.65c0.21,2.68-1.88,12.99,0.59,12.11
			c9.56-3.14,10.74-3.73,14.55-3.78c5.32-0.14,14.33,0.7,19.32-1.56c2.31-1.02,7.73-3.92,8.49-6.47c2.04-6.89-8.22-9.53-5.26-10.44
			c4.08-1.34,7.68,1.45,8.21-0.94c3.17-11.19,5.33-21.45,7.85-28.3c2.36-6.52,6.49-20.05,6.55-26.98
			c0.27-5.37-2.26-15.81-7.14-17.74C572.64,167.01,557.02,167.66,548.86,170.37z"/>
		<path d="M653.18,80.2l-4.67-12.59l8.27-0.43c0,0-10.52-6.63-18.95-10.07c-3.27-1.32-9.99-0.78-10.31-4.3
			c-0.32-3.73,12.72-7.92,12.72-7.92l-13.05,2.95l-10.15,2.31c0,0,1.61-3.27,2.04-7.06c0.54-3.52,0.11-6.85,0.11-6.85
			s-1.67,3.81-2.95,6.23c-1.72,3.49-6.12,0.97-6.12,0.97c0.21-5.16,0.64-8.54,0.48-12.46c-0.27-4.99-2.74-12.03-2.74-12.03
			s-2.2,9.18-3.86,12.83c-4.67,10.47-4.78,8.86-4.78,8.86s-0.91,0.56-4.83-7.36c-1.18-2.31-2.09-8.54-2.09-8.54
			s-0.81,4.03-0.91,6.98c0,1.67,0.16,2.04,0,6.66c0,0-28.52-19.32-39.53-21.47c-9.66-1.82-14.17,0.62-14.17,0.62l3.7,2.01
			c0,0-8.91,5.72-12.13,7.14c-3.97,1.82-15.73,4.96-15.73,4.96s3.01,0.3,4.84,0.94c1.23,0.43,2.25,2.04,2.25,2.04
			s-2.2,2.63-6.93,4.14c-3.86,1.34-10.58,2.41-10.58,2.41s13.96-0.16,18.04,0.75c3.54,0.75,13.15,5.07,13.15,5.07s-1.66,4-2.74,5.15
			c-0.75,1.29-4.35,4.75-4.35,4.75s5.26-4.46,7.03-5.69c1.18-0.86,3.11-1.99,4.4-3.27c1.56-0.27,4.08-0.54,5.15-0.54
			c1.18,0,3.92,0.22,6.18,0.43c-5.05,5.69-9.13,11.54-10.69,16.35c-0.86,3.19-0.48,13.37-0.48,13.37s-18.42,14.52-23.57,10.61
			c-1.13-0.94,0.91-6.04,0.91-6.04s-9.18,2.01-11.22,0.13c-1.24-1.02,0.86-7.57,0.86-7.57s-9.82,0.27-19.49,2.44
			c-7.3,1.64-14.33,5.13-17.18,6.04c-2.52,0.86,8.43-8.27,8.43-8.27s-17.88,2.71-22.98,5.64c-4.67,2.69-14.55,17.72-14.55,17.72
			s8.43-6.33,9.99-4.11c4.78,6.15-1.24,36.72-1.24,36.72s6.93-17.21,10.26-21.42c6.12-8.19,14.17-11.44,14.17-11.44
			s-1.56,10.76-2.52,13.98c-1.24,3.81-6.34,13.96-6.34,13.96s8.65-6.98,11.81-8.75c2.96-1.61,12.62-6.98,11.49-3.65
			c-1.62,5.26-4.89,8.48-8.32,13.85c-5.74,8.78-10.79,13.77-14.07,23.11c-3.49,9.58,1.02,22.71,1.02,22.71s0.54-17.1,3.76-21.69
			c3.17-4.51,18.74-16.89,18.74-11.36c0,2.28-3.49,7.36-6.01,12.81c-3.65,8-6.61,16.43-6.61,16.43s5.48-2.74,5.58-1.29
			c0,3.54-3.76,8.46-3.97,11.52c-0.59,9.05,0.54,34.66,0.54,34.66s3.54-30.23,6.39-40.59c1.45-4.8,6.01-15.25,8.16-20.13
			c3.22-6.87,9.02-20.78,12.88-27.16c5.53-8.73,18.04-25.61,25.82-32.51c4.13-3.71,18.2-12.48,18.2-12.48s-5.75-2.98-6.66-6.36
			c-0.7-2.74-1.56-8.75-0.38-11.33c1.99-4.73,8.81-12.03,13.64-14.87c3.65-2.15,22.72,2.6,29.54,5.37
			c8.16,3.22,12.29,23.49,12.29,23.49s1.02-17.69,5.31-17.69c14.55,0,17.72,4.81,23.73,9.61c5.26,4.35,13.32,12.4,16.06,22.39
			c0.7,2.47,0.7,10.09,0.48,10.36c-1.29,3.36-10.95,5.53-10.95,5.53s9.34,14.55,9.02,26.63c0,0.89-3.54-0.54-3.54-0.54
			s1.61,12.54,1.61,16.83c0,0.64-2.52-1.29-2.52-1.29s-0.91,5.5-1.51,7.25c-0.8,2.66-3.97,10.31-3.97,10.31s5.31-8.29,7.04-11.27
			c0.48-0.83,2.9,2.25,2.9,2.25s0-15.41,0.86-18.63c0.48-1.13,4.56,1.93,4.56,1.93s-4.78-24.29-9.61-31.65c0,0,8.06-1.13,9.18-6.01
			c1.02-5.1-1.13-13.69-2.09-18.31c-0.75-4.64,1.5-9.99,1.5-9.99L653.18,80.2z"/>
		<path class="st2" d="M548,34.24c-3.28-1.29-7.41-1.88-13.91-0.51c-4.3,0.97,1.13,5.1,3.6,8.59l0,0c0,0,2.9,2.9,4.83,2.95
			c1.56,0,7.19,0,9.02-0.32c2.31-0.51,7.46-0.32,7.46-0.32S551.54,35.58,548,34.24z"/>
		<path class="st2" d="M634.34,62.1c-2.63-1.75-12.88,0-12.88,0s7.09,9.02,10.58,9.85c1.29,0.32,3.76-1.13,4.24-2.2
			C637.03,67.98,636.06,63.1,634.34,62.1z"/>
		<path d="M513.53,287.01c-2.14,0,7.09,3.17,7.09,5.42c0,1.66-5.16,2.79-5.21,4.59c-0.27,2.66,6.82,5.4,6.98,8.02
			c0.43,5.07-10.42,17.37-10.42,17.37s25.99-7.22,27.6-14.84c0.43-1.8-6.01-5.1-4.41-6.07c7.04-4.08,31.35-2.57,25.07-4.48
			c-11.6-3.63-17.99-4.27-24.11-5.56C530.44,290.17,519.33,286.95,513.53,287.01z"/>
		<path class="st0" d="M534.95,131.17c-0.16,3.09-1.18,26.47-1.18,26.47s18.04-32.24,20.45-32.8c8.22-1.93,13.74,11.68,13.74,11.68
			s12.95-3.62,21.11-1.32c6.39,1.8,17.88,10.42,20.45,16.35c3.33,7.25,1.99,31.7,1.99,31.7s14.39-20.46,11.87-33.55
			c-1.45-7.22-5.21-13.13-9.4-16.53c-12.19-10.04-20.89-13.85-28.99-15.04c-6.94-0.91-21.22-1.07-28.2,0
			C550.47,119.31,535.01,126.42,534.95,131.17z"/>
		<path class="st0" d="M507.2,251.76c0.59,2.84-4.78,12.97-5.96,10.28c-3.81-8.72-8.8-23.57-8.8-23.57s-0.48-4.99,0.59-8.96
			C494.15,223.49,505.75,244.91,507.2,251.76z"/>
		<path class="st0" d="M521.15,247.33c0,0-9.07,8.86-11.06,11.65c-1.88,2.52-5.53,10.09-4.13,11.22c4.99,4.03,17.5,5.08,23.52,5.48
			c12.08,0.83,42.95,9.48,48.59,4.03c2.16-2.2,2.16-11.38,1.52-15.09c-0.59-2.41-3.66-9.39-3.66-9.39s-3.92,6.66-5.74,8.27
			c-6.98,5.29-18.9,0.97-28.03,3.01c-3.7,0.81-10.41,6.2-13.96,5.21c-1.93-0.4-4.83-3.76-5.42-5.64
			C521.53,262.2,521.15,247.33,521.15,247.33z"/>
	</g>
</g>
</svg>
